<?xml version="1.0" standalone="no"?>
<!DOCTYPE svg PUBLIC "-//W3C//DTD SVG 20010904//EN"
 "http://www.w3.org/TR/2001/REC-SVG-20010904/DTD/svg10.dtd">
<svg version="1.0" xmlns="http://www.w3.org/2000/svg"
 width="213.000000pt" height="213.000000pt" viewBox="0 0 213.000000 213.000000"
 preserveAspectRatio="xMidYMid meet">
<metadata>
Created by potrace 1.11, written by Peter Selinger 2001-2013
</metadata>
<g transform="translate(0.000000,213.000000) scale(0.100000,-0.100000)"
fill="#000000" stroke="none">
<path d="M10 1065 l0 -1065 365 0 c411 0 385 -6 319 77 -19 22 -38 52 -43 65
-5 12 -30 50 -55 82 -49 63 -62 93 -53 128 6 23 -49 218 -79 281 l-18 37 -23
-22 -23 -22 -62 30 c-99 46 -238 129 -275 164 -28 27 -34 39 -31 69 3 36 3 36
63 45 78 12 124 12 214 -2 40 -6 79 -8 87 -5 10 4 12 24 8 86 -6 83 -26 145
-50 160 -8 4 -14 13 -14 18 0 19 -26 39 -50 39 -5 0 -10 23 -10 52 0 48 -1 50
-15 32 -13 -17 -14 -11 -10 61 3 46 1 74 -4 66 -13 -20 -24 4 -17 37 l5 27
-13 -28 c-14 -32 -26 -26 -26 16 0 25 -2 28 -15 17 -19 -16 -19 -11 0 33 8 20
14 47 14 59 -1 17 -2 18 -6 6 -8 -31 -20 -19 -16 15 4 30 3 31 -11 13 -20 -25
-20 -10 -1 24 8 14 14 28 15 33 0 12 -28 8 -33 -5 -4 -8 -6 -7 -6 3 -1 20 23
42 34 31 4 -4 4 3 1 15 -5 14 1 40 13 69 23 51 27 67 10 44 -7 -11 -8 -3 -3
30 8 57 12 64 30 49 9 -7 12 -21 9 -33 -6 -21 -6 -21 9 -2 9 11 16 24 16 28 0
10 50 -1 68 -15 7 -5 12 -15 11 -21 -2 -15 12 -56 19 -56 3 0 17 10 31 23 l25
22 -22 -32 c-24 -34 -28 -53 -11 -53 7 0 8 -12 4 -32 -4 -18 -4 -30 0 -26 5 4
14 3 22 -3 10 -9 18 -8 33 6 11 10 20 24 20 32 0 20 28 16 42 -6 10 -16 14
-17 22 -6 15 19 86 31 86 15 0 -6 12 -11 28 -10 44 3 52 1 52 -14 0 -8 4 -17
8 -20 12 -7 93 22 114 41 21 19 93 10 85 -11 -3 -7 -1 -19 3 -26 7 -12 17 -12
60 -1 72 19 93 6 121 -75 12 -35 26 -61 31 -58 5 3 6 -5 3 -19 -4 -16 -1 -30
10 -41 12 -12 13 -16 3 -16 -10 0 -10 -2 1 -9 11 -7 10 -11 -5 -20 -11 -6 -14
-11 -7 -11 27 0 -2 -30 -59 -59 -38 -20 -75 -31 -101 -31 -23 0 -47 -4 -53 -8
-10 -7 -44 -74 -44 -87 0 -9 -52 -55 -62 -55 -15 0 -29 -71 -22 -119 5 -42 3
-55 -11 -71 -14 -16 -16 -29 -11 -72 12 -89 3 -148 -21 -148 -13 0 -13 -2 -2
-16 11 -14 26 -15 83 -11 68 6 70 7 115 58 25 29 49 58 53 64 10 17 -60 105
-83 105 -30 0 -22 27 16 53 35 24 35 24 15 42 -16 14 -18 21 -8 28 10 7 11 10
0 14 -7 2 -17 13 -22 24 -12 22 9 73 35 82 19 8 19 0 0 -19 -24 -24 -18 -44
13 -44 19 0 23 3 13 9 -10 7 -11 13 -2 30 15 27 25 27 39 -3 7 -16 24 -27 54
-34 25 -6 57 -23 72 -37 19 -17 38 -25 64 -25 39 0 72 25 64 48 -2 7 1 12 7
12 6 0 11 -6 12 -12 4 -68 3 -88 -3 -88 -5 0 -8 -6 -8 -13 0 -19 -37 -40 -43
-24 -4 9 -6 9 -6 0 -1 -7 -7 -13 -15 -13 -22 0 -24 -77 -4 -139 13 -40 18 -84
17 -170 0 -139 -13 -172 -94 -253 -30 -29 -55 -57 -55 -62 0 -5 -11 -23 -24
-41 -15 -19 -24 -45 -24 -63 1 -28 3 -30 26 -21 38 14 38 4 2 -38 -39 -44 -61
-62 -110 -85 -21 -10 -28 -17 -17 -17 9 -1 17 -5 17 -10 0 -13 -25 -21 -68
-22 l-37 -1 40 -9 c44 -9 149 -3 210 13 22 6 55 14 74 19 33 7 34 7 15 -11
-10 -10 -37 -28 -59 -39 l-40 -21 38 0 c40 0 46 -10 22 -34 -8 -8 -15 -24 -15
-35 0 -21 1 -21 500 -21 l500 0 0 1065 0 1065 -130 0 c-122 0 -130 -1 -130
-19 0 -11 4 -22 9 -25 5 -3 9 -40 10 -82 1 -52 7 -86 19 -106 13 -25 14 -32 4
-36 -10 -3 -8 -10 9 -28 12 -12 19 -30 16 -38 -4 -9 4 -21 19 -30 23 -16 34
-46 16 -46 -11 0 -12 -69 -1 -76 5 -3 9 -36 9 -75 0 -58 -3 -69 -17 -69 -14 0
-14 -2 2 -20 20 -22 30 -80 14 -80 -14 0 -11 -28 4 -33 8 -4 8 -6 0 -6 -6 -1
-9 -10 -5 -23 4 -17 2 -20 -13 -15 -13 6 -16 3 -11 -9 3 -8 2 -24 -4 -34 -8
-15 -6 -17 13 -13 16 3 18 2 8 -5 -13 -9 -12 -25 4 -64 5 -13 1 -20 -16 -27
-15 -6 -18 -10 -8 -10 13 -1 14 -8 7 -48 -5 -27 -11 -64 -14 -83 -3 -19 -8
-42 -12 -50 -3 -8 -7 -19 -8 -25 -1 -5 -2 -12 -3 -15 -1 -3 -4 -27 -7 -54 -7
-67 -7 -70 -22 -81 -7 -6 -16 -31 -18 -55 -8 -73 -14 -90 -29 -90 -10 0 -14
-13 -13 -52 1 -32 -3 -53 -10 -56 -7 -2 -12 -9 -12 -16 0 -7 -14 -25 -30 -40
-30 -26 -33 -43 -15 -88 4 -10 3 -18 -3 -18 -6 0 -23 25 -37 56 -26 55 -26 58
-14 139 12 82 12 82 -16 134 -26 47 -27 52 -12 68 42 48 125 242 112 263 -2 3
2 24 10 46 8 21 14 55 15 75 0 36 19 89 33 89 4 0 7 11 7 25 0 14 6 36 14 48
12 17 13 31 4 67 -20 89 -42 161 -49 166 -4 2 -6 27 -3 54 4 41 2 49 -11 44
-10 -4 -15 0 -15 11 0 9 4 13 10 10 6 -4 7 6 4 25 -5 22 -3 30 7 30 9 1 7 6
-6 16 -14 11 -16 18 -8 21 10 4 10 9 -2 25 -10 15 -11 27 -5 39 8 13 3 26 -17
51 -15 18 -35 39 -45 45 -26 20 -58 78 -58 107 0 16 -5 26 -15 26 -17 0 -39
36 -30 50 4 7 -181 9 -536 8 -452 -3 -543 -5 -547 -17 -3 -8 0 -11 7 -7 6 4
11 2 11 -3 0 -6 -11 -11 -24 -11 -20 0 -24 -4 -21 -21 4 -18 2 -19 -12 -7 -9
7 -17 11 -17 10 -2 -7 -76 11 -76 18 0 4 -9 10 -21 13 -12 3 -19 10 -16 14 3
5 -8 10 -24 11 -23 2 -29 -2 -29 -17 0 -10 -7 -21 -15 -25 -11 -4 -15 1 -15
19 l0 25 -135 0 -135 0 0 -1065z m561 1007 c12 -5 14 -13 8 -29 -10 -28 -19
-29 -47 -2 -34 31 -9 51 39 31z m9 -82 c0 -5 -5 -10 -11 -10 -5 0 -7 5 -4 10
3 6 8 10 11 10 2 0 4 -4 4 -10z m578 -642 c-3 -7 -20 -16 -39 -20 -19 -5 -43
-13 -54 -18 -28 -12 -75 -19 -70 -9 3 4 -1 9 -7 12 -7 2 7 13 32 25 50 23 144
30 138 10z m-118 -72 c0 -3 -4 -8 -10 -11 -5 -3 -10 -1 -10 4 0 6 5 11 10 11
6 0 10 -2 10 -4z m60 -51 c-7 -9 -15 -13 -18 -10 -3 2 1 11 8 20 7 9 15 13 18
10 3 -2 -1 -11 -8 -20z m-987 -912 c-7 -2 -21 -2 -30 0 -10 3 -4 5 12 5 17 0
24 -2 18 -5z m113 -18 c4 -16 0 -30 -10 -40 -9 -9 -16 -23 -16 -30 0 -15 -27
-45 -40 -45 -9 0 -24 48 -21 70 2 17 56 70 71 70 5 0 12 -11 16 -25z m34 -135
c0 -20 -30 -46 -61 -52 -21 -4 -24 -1 -23 23 0 16 12 37 27 52 15 13 27 31 28
38 1 17 28 -40 29 -61z m-80 -111 c0 -5 -7 -9 -15 -9 -9 0 -12 6 -9 15 6 15
24 11 24 -6z"/>
<path d="M393 1598 c-4 -7 -9 -24 -11 -38 -6 -62 -9 -76 -16 -92 -5 -10 -5
-25 -2 -34 3 -8 2 -12 -4 -9 -6 3 -10 2 -10 -4 0 -5 5 -13 11 -16 5 -4 9 -17
8 -28 -3 -45 2 -51 16 -19 12 28 29 252 19 252 -1 0 -6 -6 -11 -12z"/>
<path d="M341 1564 c0 -11 3 -14 6 -6 3 7 2 16 -1 19 -3 4 -6 -2 -5 -13z"/>
<path d="M476 1357 c-16 -12 -10 -16 55 -35 107 -32 121 -28 77 23 -17 20 -31
25 -68 25 -25 0 -54 -6 -64 -13z"/>
<path d="M465 1260 c-3 -5 -2 -10 4 -10 5 0 13 5 16 10 3 6 2 10 -4 10 -5 0
-13 -4 -16 -10z"/>
<path d="M507 1255 c-49 -17 -51 -19 -31 -35 13 -12 17 -11 24 0 7 12 13 10
34 -9 20 -19 28 -21 45 -12 12 7 21 18 21 25 0 8 8 17 18 21 16 7 15 8 -3 15
-29 12 -65 11 -108 -5z m63 -15 c0 -5 -4 -10 -10 -10 -5 0 -10 5 -10 10 0 6 5
10 10 10 6 0 10 -4 10 -10z"/>
<path d="M956 825 c-11 -8 -28 -15 -37 -15 -10 0 -20 -8 -23 -17 -7 -21 -120
-76 -198 -97 -31 -8 -69 -21 -86 -30 -16 -8 -32 -12 -36 -9 -3 4 -6 2 -6 -4 0
-6 33 -11 83 -11 45 0 74 2 65 5 -10 2 -18 9 -18 13 0 15 60 42 77 36 9 -4 22
-1 29 5 8 6 28 9 45 7 20 -3 33 0 36 9 7 18 32 17 39 -2 5 -12 9 -11 23 7 23
28 51 18 51 -18 0 -21 3 -24 13 -15 10 8 23 6 52 -9 22 -11 32 -20 24 -20 -8
0 -29 -18 -46 -40 -17 -22 -49 -54 -72 -71 -23 -16 -39 -34 -36 -39 3 -6 -4
-10 -15 -10 -19 0 -21 -4 -16 -26 6 -23 4 -26 -13 -21 -14 3 -21 0 -21 -9 0
-7 -10 -19 -22 -25 -14 -8 -18 -14 -10 -17 6 -2 12 -10 12 -17 0 -13 29 -35
45 -35 4 0 5 10 1 23 -4 16 0 26 14 35 15 9 18 19 13 45 -6 42 16 55 53 30 24
-16 26 -15 50 10 14 15 29 27 35 27 12 0 63 51 85 86 17 25 16 26 -25 61 -22
20 -41 45 -41 55 0 36 -63 118 -89 118 -9 0 -25 -7 -35 -15z"/>
<path d="M922 664 c-8 -8 -21 -13 -30 -10 -9 3 -24 1 -32 -4 -11 -7 -6 -10 20
-9 37 1 127 26 98 28 -9 1 -22 3 -30 6 -7 2 -19 -2 -26 -11z"/>
<path d="M595 611 c-3 -6 -11 -9 -16 -6 -16 11 -9 -7 9 -21 24 -18 43 -17 72
6 23 18 23 20 5 20 -11 0 -30 3 -41 6 -12 3 -25 1 -29 -5z"/>
</g>
</svg>
